<svg width="32" height="32" viewBox="0 0 32 32" fill="none" xmlns="http://www.w3.org/2000/svg">
<path d="M14 18.6666L14.7073 17.9046C15.5373 17.0653 16.91 17.1639 17.6143 18.1135C18.1644 18.8555 18.122 19.8866 17.5128 20.5798L14 23.9999H17.9087" stroke="#DCDCDC" stroke-width="1.5" stroke-linecap="round" stroke-linejoin="round"/>
<path d="M16 29.3333C20.7864 29.3333 24.6666 25.4531 24.6666 20.6667C24.6666 15.8802 20.7864 12 16 12C11.2135 12 7.33331 15.8802 7.33331 20.6667C7.33331 25.4531 11.2135 29.3333 16 29.3333Z" stroke="#DCDCDC" stroke-width="1.5"/>
<path d="M12 12.6667L7.33331 2.66675" stroke="#DCDCDC" stroke-width="1.5" stroke-linecap="round" stroke-linejoin="round"/>
<path d="M20 12.6667L24.6667 2.66675" stroke="#DCDCDC" stroke-width="1.5" stroke-linecap="round" stroke-linejoin="round"/>
<path d="M20 2.66675L18.6667 6.00008" stroke="#DCDCDC" stroke-width="1.5" stroke-linecap="round" stroke-linejoin="round"/>
<path d="M16.6667 12.0001L12.6667 2.66675" stroke="#DCDCDC" stroke-width="1.5" stroke-linecap="round" stroke-linejoin="round"/>
</svg>
