<svg width="40" height="40" viewBox="0 0 40 40" fill="none" xmlns="http://www.w3.org/2000/svg">
<path d="M12.5 5.83337C9.90703 5.91116 8.36104 6.19977 7.29131 7.27049C5.82684 8.73632 5.82684 11.0955 5.82684 15.814V26.6574C5.82684 31.3759 5.82684 33.735 7.29131 35.2009C8.75578 36.6667 11.1128 36.6667 15.8268 36.6667H24.1602C28.8742 36.6667 31.2312 36.6667 32.6957 35.2009C34.1602 33.735 34.1602 31.3759 34.1602 26.6574V15.814C34.1602 11.0955 34.1602 8.73632 32.6957 7.27051C31.626 6.19977 30.08 5.91116 27.487 5.83337" stroke="#EC4D4A" stroke-width="1.5"/>
<path d="M12.4935 6.25004C12.4935 4.63921 13.7993 3.33337 15.4101 3.33337H24.5768C26.1877 3.33337 27.4935 4.63921 27.4935 6.25004C27.4935 7.86087 26.1877 9.16671 24.5768 9.16671H15.4101C13.7993 9.16671 12.4935 7.86087 12.4935 6.25004Z" stroke="#EC4D4A" stroke-width="1.5" stroke-linejoin="round"/>
<path d="M22.5 18.3334H28.3333" stroke="#EC4D4A" stroke-width="1.5" stroke-linecap="round"/>
<path d="M11.6667 20C11.6667 20 12.5 20 13.3334 21.6666C13.3334 21.6666 15.9804 17.5 18.3334 16.6666" stroke="#EC4D4A" stroke-width="1.5" stroke-linecap="round" stroke-linejoin="round"/>
<path d="M22.5 28.3334H28.3333" stroke="#EC4D4A" stroke-width="1.5" stroke-linecap="round"/>
<path d="M13.3333 28.3334H15" stroke="#EC4D4A" stroke-width="2" stroke-linecap="round" stroke-linejoin="round"/>
</svg>
