<svg width="40" height="40" viewBox="0 0 40 40" fill="none" xmlns="http://www.w3.org/2000/svg">
<path d="M24.9675 11.6926C24.9675 11.6926 25.8008 12.526 26.6342 14.1926C26.6342 14.1926 29.2812 10.026 31.6342 9.19263" stroke="#4A6EEC" stroke-width="1.5" stroke-linecap="round" stroke-linejoin="round"/>
<path d="M16.6582 3.36888C12.4941 3.19258 9.27697 3.67228 9.27697 3.67228C7.24555 3.81753 3.35254 4.9564 3.35257 11.6076C3.3526 18.2022 3.3095 26.3322 3.35257 29.5732C3.35257 31.5533 4.5786 36.1722 8.8222 36.4197C13.9803 36.7207 23.2713 36.7847 27.5342 36.4197C28.6753 36.3553 32.4745 35.4595 32.9553 31.326C33.4535 27.0438 33.3543 24.0678 33.3543 23.3595" stroke="#4A6EEC" stroke-width="1.5" stroke-linecap="round" stroke-linejoin="round"/>
<path d="M36.6665 11.6926C36.6665 16.295 32.932 20.026 28.3252 20.026C23.7183 20.026 19.9838 16.295 19.9838 11.6926C19.9838 7.09022 23.7183 3.35925 28.3252 3.35925C32.932 3.35925 36.6665 7.09022 36.6665 11.6926Z" stroke="#4A6EEC" stroke-width="1.5" stroke-linecap="round"/>
<path d="M11.6342 21.6926H18.3008" stroke="#4A6EEC" stroke-width="1.5" stroke-linecap="round"/>
<path d="M11.6342 28.3594H24.9675" stroke="#4A6EEC" stroke-width="1.5" stroke-linecap="round"/>
</svg>
