<svg width="40" height="40" viewBox="0 0 40 40" fill="none" xmlns="http://www.w3.org/2000/svg">
<path d="M18.3441 35.8333H16.0091C10.0337 35.8333 7.04596 35.8333 5.18963 33.9417C3.33331 32.0502 3.33331 29.0057 3.33331 22.9167C3.33331 16.8277 3.33331 13.7832 5.18963 11.8916C7.04596 10 10.0337 10 16.0091 10H22.347C28.3223 10 31.3101 10 33.1665 11.8916C34.5946 13.347 34.924 15.4848 35 19.1667V21.6667" stroke="#EC4AC9" stroke-width="1.5" stroke-linecap="round"/>
<path d="M31.6667 30.8333H26.6667M26.6667 35.8333C23.9052 35.8333 21.6667 33.5948 21.6667 30.8333C21.6667 28.0718 23.9052 25.8333 26.6667 25.8333M31.6667 35.8333C34.4282 35.8333 36.6667 33.5948 36.6667 30.8333C36.6667 28.0718 34.4282 25.8333 31.6667 25.8333" stroke="#EC4AC9" stroke-width="1.5" stroke-linecap="round"/>
<path d="M26.6663 10.0001L26.5007 9.48498C25.6757 6.91823 25.2632 5.63486 24.281 4.9008C23.299 4.16675 21.9945 4.16675 19.3855 4.16675H18.947C16.338 4.16675 15.0335 4.16675 14.0514 4.9008C13.0694 5.63486 12.6568 6.91823 11.8318 9.48498L11.6663 10.0001" stroke="#EC4AC9" stroke-width="1.5"/>
</svg>
