<svg width="40" height="40" viewBox="0 0 40 40" fill="none" xmlns="http://www.w3.org/2000/svg">
<path d="M20.8687 5H19.1987C18.2605 5.01393 17.3263 5.05138 16.4086 5.11228C9.4229 5.5758 3.8584 11.209 3.40054 18.281C3.31094 19.6648 3.31094 21.098 3.40054 22.482C3.5673 25.0577 4.70849 27.4425 6.05199 29.4563C6.83205 30.866 6.31725 32.6257 5.50472 34.1625C4.91887 35.2707 4.62595 35.8248 4.86115 36.225C5.09634 36.6253 5.6217 36.6382 6.67244 36.6637C8.75035 36.7142 10.1515 36.1262 11.2638 35.3075C11.8946 34.8432 12.21 34.611 12.4274 34.5843C12.6447 34.5577 13.0725 34.7335 13.928 35.0852C14.6969 35.4013 15.5896 35.5963 16.4086 35.6507C18.787 35.8085 21.2753 35.8088 23.6585 35.6507C30.3617 35.206 35.8365 30.0015 36.6667 23.3333" stroke="#ECAC4A" stroke-width="1.5" stroke-linecap="round" stroke-linejoin="round"/>
<path d="M25.9833 14.4136C24.9353 15.0278 22.1877 16.2821 23.8612 17.8516C24.6787 18.6182 25.5893 19.1666 26.734 19.1666H33.266C34.4107 19.1666 35.3213 18.6182 36.1388 17.8516C37.8123 16.2821 35.0647 15.0278 34.0167 14.4136C31.5592 12.9731 28.4408 12.9731 25.9833 14.4136Z" stroke="#ECAC4A" stroke-width="1.5"/>
<path d="M33.3333 6.66659C33.3333 8.50754 31.841 9.99992 30 9.99992C28.159 9.99992 26.6667 8.50754 26.6667 6.66659C26.6667 4.82564 28.159 3.33325 30 3.33325C31.841 3.33325 33.3333 4.82564 33.3333 6.66659Z" stroke="#ECAC4A" stroke-width="1.5"/>
<path d="M14.1667 25.0001H25.8333M14.1667 16.6667H17.5" stroke="#ECAC4A" stroke-width="1.5" stroke-linecap="round" stroke-linejoin="round"/>
</svg>
