<svg width="45" height="43" viewBox="0 0 45 43" fill="none" xmlns="http://www.w3.org/2000/svg">
<path d="M28.1684 0.571959C28.7276 -0.264365 30.0327 0.155668 29.9991 1.16116L29.5678 14.08C29.5498 14.6194 29.963 15.0757 30.5015 15.1112L43.3996 15.9607C44.4035 16.0268 44.6923 17.3671 43.8047 17.8408L32.401 23.9267C31.9249 24.1807 31.7363 24.7668 31.9748 25.2509L37.6882 36.8457C38.1328 37.7481 37.1165 38.6684 36.2625 38.1366L25.2902 31.3036C24.8321 31.0183 24.2302 31.148 23.9303 31.5967L16.7455 42.342C16.1863 43.1783 14.8812 42.7582 14.9148 41.7528L15.3461 28.8339C15.3641 28.2946 14.9509 27.8382 14.4124 27.8027L1.51429 26.9532C0.510413 26.8871 0.221618 25.5468 1.10918 25.0731L12.5129 18.9873C12.989 18.7332 13.1776 18.1471 12.9391 17.663L7.22572 6.06821C6.78105 5.16577 7.79736 4.24553 8.65136 4.77735L19.6237 11.6103C20.0818 11.8956 20.6837 11.7659 20.9836 11.3173L28.1684 0.571959Z" fill="#F0DB4F"/>
</svg>
