<svg width="37" height="37" viewBox="0 0 37 37" fill="none" xmlns="http://www.w3.org/2000/svg">
<path d="M17.5246 1.31825C17.7594 0.278691 19.2406 0.278686 19.4754 1.31824L21.3307 9.53156C21.4829 10.2053 22.256 10.5256 22.84 10.1568L29.9596 5.66094C30.8607 5.0919 31.9081 6.13927 31.3391 7.04039L26.8432 14.16C26.4744 14.744 26.7947 15.5171 27.4684 15.6693L35.6818 17.5246C36.7213 17.7594 36.7213 19.2406 35.6818 19.4754L27.4684 21.3307C26.7947 21.4829 26.4744 22.256 26.8432 22.84L31.3391 29.9596C31.9081 30.8607 30.8607 31.9081 29.9596 31.3391L22.84 26.8432C22.256 26.4744 21.4829 26.7947 21.3307 27.4684L19.4754 35.6818C19.2406 36.7213 17.7594 36.7213 17.5246 35.6818L15.6693 27.4684C15.5171 26.7947 14.744 26.4744 14.16 26.8432L7.0404 31.3391C6.13928 31.9081 5.0919 30.8607 5.66093 29.9596L10.1568 22.84C10.5256 22.256 10.2053 21.4829 9.53156 21.3307L1.31825 19.4754C0.278691 19.2406 0.278686 17.7594 1.31824 17.5246L9.53156 15.6693C10.2053 15.5171 10.5256 14.744 10.1568 14.16L5.66094 7.0404C5.0919 6.13928 6.13927 5.0919 7.04039 5.66093L14.16 10.1568C14.744 10.5256 15.5171 10.2053 15.6693 9.53156L17.5246 1.31825Z" fill="#3772FF"/>
</svg>
