<svg width="32" height="32" viewBox="0 0 32 32" fill="none" xmlns="http://www.w3.org/2000/svg">
<path d="M14 18.6666C14.4353 17.7959 15.0381 17.3333 16 17.3333C16.9728 17.3333 18 17.941 18 18.9999C18 19.9205 17.2539 20.6666 16.3333 20.6666C17.2539 20.6666 18 21.4127 18 22.3333C18 23.3922 16.9728 23.9999 16 23.9999C15.0381 23.9999 14.4353 23.5373 14 22.6666" stroke="#A4832E" stroke-width="1.5" stroke-linecap="round" stroke-linejoin="round"/>
<path d="M16 29.3333C20.7864 29.3333 24.6666 25.4531 24.6666 20.6667C24.6666 15.8802 20.7864 12 16 12C11.2135 12 7.33331 15.8802 7.33331 20.6667C7.33331 25.4531 11.2135 29.3333 16 29.3333Z" stroke="#A4832E" stroke-width="1.5"/>
<path d="M12 12.6667L7.33331 2.66675" stroke="#A4832E" stroke-width="1.5" stroke-linecap="round" stroke-linejoin="round"/>
<path d="M20 12.6667L24.6667 2.66675" stroke="#A4832E" stroke-width="1.5" stroke-linecap="round" stroke-linejoin="round"/>
<path d="M20 2.66675L18.6667 6.00008" stroke="#A4832E" stroke-width="1.5" stroke-linecap="round" stroke-linejoin="round"/>
<path d="M16.6667 12.0001L12.6667 2.66675" stroke="#A4832E" stroke-width="1.5" stroke-linecap="round" stroke-linejoin="round"/>
</svg>
